# xmcd CD database file
# Copyright (C) 1993-1996 Ti Kan
#
# Track frame offsets:
#	150
#	13577
#	34782
#	54192
#	77815
#	101017
#	120727
#	139362
#	159207
#	174215
#
# Disc length: 2673 seconds
#
# Revision: 1
# Processed by: cddbd v1.4b41PL1 Copyright (c) Steve Scherf et al.
# Submitted via: CDValet v3.01 - Copyright (c) 1997 Greg Leichner
#
DISCID=730a6f0a
DTITLE=Mick Hanly - All I Remember
DYEAR=1900
DGENRE=
TTITLE0=Still haven't managed
TTITLE1=Birthmark
TTITLE2=Free to run
TTITLE3=Pass the point of rescue
TTITLE4=Fall like a stone
TTITLE5=My love is in America
TTITLE6=All I remember
TTITLE7=Cold war
TTITLE8=Landslide
TTITLE9=Above waterline
EXTD=
EXTT0=
EXTT1=
EXTT2=
EXTT3=
EXTT4=
EXTT5=
EXTT6=
EXTT7=
EXTT8=
EXTT9=
PLAYORDER=
